<mxfile host="app.diagrams.net" modified="2023-07-28T11:52:10.747Z" agent="Mozilla/5.0 (Windows NT 10.0; Win64; x64) AppleWebKit/537.36 (KHTML, like Gecko) Chrome/115.0.0.0 Safari/537.36 Edg/115.0.1901.188" etag="QrZ22a7orO66IeDSnpF2" version="21.6.5" type="device">
  <diagram name="PÃ¡gina-1" id="AfMmKkmQDejobn5psjRK">
    <mxGraphModel dx="928" dy="486" grid="1" gridSize="10" guides="1" tooltips="1" connect="1" arrows="1" fold="1" page="1" pageScale="1" pageWidth="827" pageHeight="1169" background="#21c0a5" math="0" shadow="0">
      <root>
        <mxCell id="0" />
        <mxCell id="1" parent="0" />
        <mxCell id="6fbkypTu9VrBJ1vaU0E5-16" value="Cat moves" style="shape=table;startSize=40;container=1;collapsible=0;childLayout=tableLayout;strokeColor=default;fontSize=23;sketch=1;hachureGap=4;jiggle=2;curveFitting=1;fontFamily=Architects Daughter;fontSource=https%3A%2F%2Ffonts.googleapis.com%2Fcss%3Ffamily%3DArchitects%2BDaughter;fontStyle=1;labelBackgroundColor=none;html=1;labelBorderColor=none;fillColor=none;fontColor=#FFFFFF;" parent="1" vertex="1">
          <mxGeometry x="80" y="120" width="680" height="380.0000000000002" as="geometry" />
        </mxCell>
        <mxCell id="hICDb3jD_uFlhBEh_h6F-1" style="shape=tableRow;horizontal=0;startSize=0;swimlaneHead=0;swimlaneBody=0;strokeColor=inherit;top=0;left=0;bottom=0;right=0;collapsible=0;dropTarget=0;fillColor=none;points=[[0,0.5],[1,0.5]];portConstraint=eastwest;fontSize=16;sketch=1;hachureGap=4;jiggle=2;curveFitting=1;fontFamily=Architects Daughter;fontSource=https%3A%2F%2Ffonts.googleapis.com%2Fcss%3Ffamily%3DArchitects%2BDaughter;fontColor=#FFFFFF;" vertex="1" parent="6fbkypTu9VrBJ1vaU0E5-16">
          <mxGeometry y="40" width="680" height="40" as="geometry" />
        </mxCell>
        <mxCell id="hICDb3jD_uFlhBEh_h6F-2" value="&amp;nbsp;&lt;b style=&quot;border-color: var(--border-color); font-size: 17px;&quot;&gt;&lt;u style=&quot;border-color: var(--border-color);&quot;&gt;Computer keys&lt;/u&gt;&lt;/b&gt;" style="shape=partialRectangle;html=1;whiteSpace=wrap;connectable=0;strokeColor=inherit;overflow=hidden;fillColor=none;top=0;left=0;bottom=0;right=0;pointerEvents=1;fontSize=16;sketch=1;hachureGap=4;jiggle=2;curveFitting=1;fontFamily=Architects Daughter;fontSource=https%3A%2F%2Ffonts.googleapis.com%2Fcss%3Ffamily%3DArchitects%2BDaughter;fontColor=#FFFFFF;" vertex="1" parent="hICDb3jD_uFlhBEh_h6F-1">
          <mxGeometry width="187" height="40" as="geometry">
            <mxRectangle width="187" height="40" as="alternateBounds" />
          </mxGeometry>
        </mxCell>
        <mxCell id="hICDb3jD_uFlhBEh_h6F-3" value="&lt;span style=&quot;background-color: rgb(33, 192, 165);&quot;&gt;&lt;span style=&quot;border-color: var(--border-color); font-family: &amp;quot;Architects Daughter&amp;quot;; font-style: normal; font-variant-ligatures: normal; font-variant-caps: normal; font-weight: 400; letter-spacing: normal; orphans: 2; text-align: center; text-indent: 0px; text-transform: none; widows: 2; word-spacing: 0px; -webkit-text-stroke-width: 0px; text-decoration-thickness: initial; text-decoration-style: initial; text-decoration-color: initial; font-size: 17px; float: none; display: inline !important;&quot;&gt;&lt;span style=&quot;border-color: var(--border-color);&quot;&gt;&amp;nbsp;&lt;/span&gt;&lt;/span&gt;&lt;b style=&quot;border-color: var(--border-color); font-family: &amp;quot;Architects Daughter&amp;quot;; font-style: normal; font-variant-ligatures: normal; font-variant-caps: normal; letter-spacing: normal; orphans: 2; text-align: center; text-indent: 0px; text-transform: none; widows: 2; word-spacing: 0px; -webkit-text-stroke-width: 0px; text-decoration-thickness: initial; text-decoration-style: initial; text-decoration-color: initial; font-size: 17px;&quot;&gt;&lt;u style=&quot;border-color: var(--border-color);&quot;&gt;Action&lt;/u&gt;&lt;/b&gt;&lt;/span&gt;" style="shape=partialRectangle;html=1;whiteSpace=wrap;connectable=0;strokeColor=inherit;overflow=hidden;fillColor=none;top=0;left=0;bottom=0;right=0;pointerEvents=1;fontSize=16;sketch=1;hachureGap=4;jiggle=2;curveFitting=1;fontFamily=Architects Daughter;fontSource=https%3A%2F%2Ffonts.googleapis.com%2Fcss%3Ffamily%3DArchitects%2BDaughter;fontColor=#FFFFFF;" vertex="1" parent="hICDb3jD_uFlhBEh_h6F-1">
          <mxGeometry x="187" width="186" height="40" as="geometry">
            <mxRectangle width="186" height="40" as="alternateBounds" />
          </mxGeometry>
        </mxCell>
        <mxCell id="hICDb3jD_uFlhBEh_h6F-4" value="&lt;span style=&quot;background-color: rgb(36, 192, 166);&quot;&gt;&lt;span style=&quot;font-family: &amp;quot;Architects Daughter&amp;quot;; font-size: 17px; font-style: normal; font-variant-ligatures: normal; font-variant-caps: normal; font-weight: 400; letter-spacing: normal; orphans: 2; text-indent: 0px; text-transform: none; widows: 2; word-spacing: 0px; -webkit-text-stroke-width: 0px; text-decoration-thickness: initial; text-decoration-style: initial; text-decoration-color: initial; float: none; display: inline !important;&quot;&gt;&amp;nbsp;&lt;/span&gt;&lt;b style=&quot;border-color: var(--border-color); font-family: &amp;quot;Architects Daughter&amp;quot;; font-size: 17px; font-style: normal; font-variant-ligatures: normal; font-variant-caps: normal; letter-spacing: normal; orphans: 2; text-indent: 0px; text-transform: none; widows: 2; word-spacing: 0px; -webkit-text-stroke-width: 0px; text-decoration-thickness: initial; text-decoration-style: initial; text-decoration-color: initial;&quot;&gt;&lt;u style=&quot;border-color: var(--border-color);&quot;&gt;Objectives of the game&lt;/u&gt;&lt;/b&gt;&lt;/span&gt;" style="shape=partialRectangle;html=1;whiteSpace=wrap;connectable=0;strokeColor=inherit;overflow=hidden;fillColor=none;top=0;left=0;bottom=0;right=0;pointerEvents=1;fontSize=16;sketch=1;hachureGap=4;jiggle=2;curveFitting=1;fontFamily=Architects Daughter;fontSource=https%3A%2F%2Ffonts.googleapis.com%2Fcss%3Ffamily%3DArchitects%2BDaughter;align=center;fontColor=#FFFFFF;" vertex="1" parent="hICDb3jD_uFlhBEh_h6F-1">
          <mxGeometry x="373" width="307" height="40" as="geometry">
            <mxRectangle width="307" height="40" as="alternateBounds" />
          </mxGeometry>
        </mxCell>
        <mxCell id="6fbkypTu9VrBJ1vaU0E5-17" value="" style="shape=tableRow;horizontal=0;startSize=0;swimlaneHead=0;swimlaneBody=0;strokeColor=inherit;top=0;left=0;bottom=0;right=0;collapsible=0;dropTarget=0;fillColor=none;points=[[0,0.5],[1,0.5]];portConstraint=eastwest;fontSize=16;sketch=1;hachureGap=4;jiggle=2;curveFitting=1;fontFamily=Architects Daughter;fontSource=https%3A%2F%2Ffonts.googleapis.com%2Fcss%3Ffamily%3DArchitects%2BDaughter;fontColor=#FFFFFF;" parent="6fbkypTu9VrBJ1vaU0E5-16" vertex="1">
          <mxGeometry y="80" width="680" height="59" as="geometry" />
        </mxCell>
        <mxCell id="6fbkypTu9VrBJ1vaU0E5-18" value="" style="shape=partialRectangle;html=1;whiteSpace=wrap;connectable=0;strokeColor=inherit;overflow=hidden;fillColor=none;top=0;left=0;bottom=0;right=0;pointerEvents=1;fontSize=16;sketch=1;hachureGap=4;jiggle=2;curveFitting=1;fontFamily=Architects Daughter;fontSource=https%3A%2F%2Ffonts.googleapis.com%2Fcss%3Ffamily%3DArchitects%2BDaughter;fontColor=#FFFFFF;" parent="6fbkypTu9VrBJ1vaU0E5-17" vertex="1">
          <mxGeometry width="187" height="59" as="geometry">
            <mxRectangle width="187" height="59" as="alternateBounds" />
          </mxGeometry>
        </mxCell>
        <mxCell id="6fbkypTu9VrBJ1vaU0E5-19" value="move to right" style="shape=partialRectangle;html=1;whiteSpace=wrap;connectable=0;strokeColor=inherit;overflow=hidden;fillColor=none;top=0;left=0;bottom=0;right=0;pointerEvents=1;fontSize=16;sketch=1;hachureGap=4;jiggle=2;curveFitting=1;fontFamily=Architects Daughter;fontSource=https%3A%2F%2Ffonts.googleapis.com%2Fcss%3Ffamily%3DArchitects%2BDaughter;fontColor=#FFFFFF;" parent="6fbkypTu9VrBJ1vaU0E5-17" vertex="1">
          <mxGeometry x="187" width="186" height="59" as="geometry">
            <mxRectangle width="186" height="59" as="alternateBounds" />
          </mxGeometry>
        </mxCell>
        <mxCell id="6fbkypTu9VrBJ1vaU0E5-20" value="&lt;blockquote style=&quot;margin: 0 0 0 40px; border: none; padding: 0px;&quot;&gt;&lt;/blockquote&gt;&lt;span style=&quot;font-size: 17px;&quot;&gt;&amp;nbsp;&amp;nbsp;&lt;br&gt;&lt;ul&gt;&lt;li&gt;&lt;span style=&quot;background-color: initial; font-size: 17px;&quot;&gt;catch toys (play)&lt;/span&gt;&lt;/li&gt;&lt;/ul&gt;&lt;/span&gt;&lt;ul style=&quot;font-size: 17px;&quot;&gt;&lt;li&gt;&lt;span style=&quot;background-color: initial;&quot;&gt;escape from parasites&lt;/span&gt;&lt;/li&gt;&lt;/ul&gt;&lt;span style=&quot;font-size: 17px; background-color: initial;&quot;&gt;&lt;span style=&quot;&quot;&gt;&lt;span style=&quot;white-space: pre;&quot;&gt;&amp;nbsp;&amp;nbsp;&amp;nbsp;&amp;nbsp;&lt;/span&gt;&lt;/span&gt;&lt;span style=&quot;&quot;&gt;&lt;span style=&quot;white-space: pre;&quot;&gt;&amp;nbsp;&amp;nbsp;&amp;nbsp;&amp;nbsp;&lt;/span&gt;&lt;/span&gt;&lt;span style=&quot;&quot;&gt;&lt;span style=&quot;white-space: pre;&quot;&gt;&amp;nbsp;&amp;nbsp;&amp;nbsp;&lt;span style=&quot;white-space: pre;&quot;&gt;&#x9;&lt;/span&gt;&lt;span style=&quot;white-space: pre;&quot;&gt;&#x9;&lt;/span&gt;&amp;nbsp;&lt;/span&gt;&lt;/span&gt;(avoid get sick)&lt;/span&gt;&lt;span style=&quot;font-size: 17px;&quot;&gt;&lt;br&gt;&lt;ul&gt;&lt;li&gt;&lt;span style=&quot;background-color: initial; font-size: 17px;&quot;&gt;escape from vaccum&lt;/span&gt;&lt;/li&gt;&lt;/ul&gt;&lt;/span&gt;&lt;span style=&quot;background-color: initial; font-size: 17px; white-space: pre;&quot;&gt;&amp;nbsp;&lt;span style=&quot;white-space: pre;&quot;&gt;&#x9;&lt;/span&gt;&lt;span style=&quot;white-space: pre;&quot;&gt;&#x9;&lt;/span&gt;&amp;nbsp;&amp;nbsp;&amp;nbsp;&lt;/span&gt;&lt;span style=&quot;background-color: initial; font-size: 17px; border-color: var(--border-color);&quot;&gt;&lt;span style=&quot;white-space: pre;&quot;&gt;&amp;nbsp;&amp;nbsp;&amp;nbsp;&amp;nbsp;&lt;/span&gt;&lt;/span&gt;&lt;span style=&quot;background-color: initial; font-size: 17px; border-color: var(--border-color);&quot;&gt;&lt;span style=&quot;white-space: pre;&quot;&gt;&amp;nbsp;&amp;nbsp;&amp;nbsp;&lt;/span&gt;&lt;/span&gt;&lt;span style=&quot;background-color: initial; font-size: 17px;&quot;&gt;(avoid dying)&lt;/span&gt;&lt;span style=&quot;font-size: 17px;&quot;&gt;&lt;br&gt;&lt;/span&gt;&lt;ul style=&quot;font-size: 17px;&quot;&gt;&lt;li&gt;&lt;span style=&quot;background-color: initial;&quot;&gt;get food (eat)&lt;/span&gt;&lt;/li&gt;&lt;/ul&gt;&lt;blockquote style=&quot;margin: 0 0 0 40px; border: none; padding: 0px;&quot;&gt;&lt;/blockquote&gt;&lt;blockquote style=&quot;margin: 0 0 0 40px; border: none; padding: 0px;&quot;&gt;&lt;/blockquote&gt;" style="shape=partialRectangle;html=1;whiteSpace=wrap;connectable=0;strokeColor=inherit;overflow=hidden;fillColor=none;top=0;left=0;bottom=0;right=0;pointerEvents=1;fontSize=16;sketch=1;hachureGap=4;jiggle=2;curveFitting=1;fontFamily=Architects Daughter;fontSource=https%3A%2F%2Ffonts.googleapis.com%2Fcss%3Ffamily%3DArchitects%2BDaughter;align=left;rowspan=5;colspan=1;fontColor=#FFFFFF;" parent="6fbkypTu9VrBJ1vaU0E5-17" vertex="1">
          <mxGeometry x="373" width="307" height="300" as="geometry">
            <mxRectangle width="307" height="59" as="alternateBounds" />
          </mxGeometry>
        </mxCell>
        <mxCell id="6fbkypTu9VrBJ1vaU0E5-21" value="" style="shape=tableRow;horizontal=0;startSize=0;swimlaneHead=0;swimlaneBody=0;strokeColor=inherit;top=0;left=0;bottom=0;right=0;collapsible=0;dropTarget=0;fillColor=none;points=[[0,0.5],[1,0.5]];portConstraint=eastwest;fontSize=16;sketch=1;hachureGap=4;jiggle=2;curveFitting=1;fontFamily=Architects Daughter;fontSource=https%3A%2F%2Ffonts.googleapis.com%2Fcss%3Ffamily%3DArchitects%2BDaughter;fontColor=#FFFFFF;" parent="6fbkypTu9VrBJ1vaU0E5-16" vertex="1">
          <mxGeometry y="139" width="680" height="61" as="geometry" />
        </mxCell>
        <mxCell id="6fbkypTu9VrBJ1vaU0E5-22" value="" style="shape=partialRectangle;html=1;whiteSpace=wrap;connectable=0;strokeColor=inherit;overflow=hidden;fillColor=none;top=0;left=0;bottom=0;right=0;pointerEvents=1;fontSize=16;sketch=1;hachureGap=4;jiggle=2;curveFitting=1;fontFamily=Architects Daughter;fontSource=https%3A%2F%2Ffonts.googleapis.com%2Fcss%3Ffamily%3DArchitects%2BDaughter;fontColor=#FFFFFF;" parent="6fbkypTu9VrBJ1vaU0E5-21" vertex="1">
          <mxGeometry width="187" height="61" as="geometry">
            <mxRectangle width="187" height="61" as="alternateBounds" />
          </mxGeometry>
        </mxCell>
        <mxCell id="6fbkypTu9VrBJ1vaU0E5-23" value="move to left" style="shape=partialRectangle;html=1;whiteSpace=wrap;connectable=0;strokeColor=inherit;overflow=hidden;fillColor=none;top=0;left=0;bottom=0;right=0;pointerEvents=1;fontSize=16;sketch=1;hachureGap=4;jiggle=2;curveFitting=1;fontFamily=Architects Daughter;fontSource=https%3A%2F%2Ffonts.googleapis.com%2Fcss%3Ffamily%3DArchitects%2BDaughter;fontColor=#FFFFFF;" parent="6fbkypTu9VrBJ1vaU0E5-21" vertex="1">
          <mxGeometry x="187" width="186" height="61" as="geometry">
            <mxRectangle width="186" height="61" as="alternateBounds" />
          </mxGeometry>
        </mxCell>
        <mxCell id="6fbkypTu9VrBJ1vaU0E5-24" value="" style="shape=partialRectangle;html=1;connectable=0;strokeColor=default;overflow=hidden;fillColor=none;top=0;left=0;bottom=0;right=0;pointerEvents=1;fontSize=16;sketch=1;hachureGap=4;jiggle=2;curveFitting=1;fontFamily=Architects Daughter;fontSource=https%3A%2F%2Ffonts.googleapis.com%2Fcss%3Ffamily%3DArchitects%2BDaughter;whiteSpace=wrap;" parent="6fbkypTu9VrBJ1vaU0E5-21" vertex="1" visible="0">
          <mxGeometry x="373" width="307" height="61" as="geometry">
            <mxRectangle width="307" height="61" as="alternateBounds" />
          </mxGeometry>
        </mxCell>
        <mxCell id="6fbkypTu9VrBJ1vaU0E5-53" value="" style="shape=tableRow;horizontal=0;startSize=0;swimlaneHead=0;swimlaneBody=0;strokeColor=inherit;top=0;left=0;bottom=0;right=0;collapsible=0;dropTarget=0;fillColor=none;points=[[0,0.5],[1,0.5]];portConstraint=eastwest;fontSize=16;sketch=1;hachureGap=4;jiggle=2;curveFitting=1;fontFamily=Architects Daughter;fontSource=https%3A%2F%2Ffonts.googleapis.com%2Fcss%3Ffamily%3DArchitects%2BDaughter;fontColor=#FFFFFF;" parent="6fbkypTu9VrBJ1vaU0E5-16" vertex="1">
          <mxGeometry y="200" width="680" height="60" as="geometry" />
        </mxCell>
        <mxCell id="6fbkypTu9VrBJ1vaU0E5-54" value="SPACE" style="shape=partialRectangle;html=1;whiteSpace=wrap;connectable=0;strokeColor=inherit;overflow=hidden;fillColor=none;top=0;left=0;bottom=0;right=0;pointerEvents=1;fontSize=16;sketch=1;hachureGap=4;jiggle=2;curveFitting=1;fontFamily=Architects Daughter;fontSource=https%3A%2F%2Ffonts.googleapis.com%2Fcss%3Ffamily%3DArchitects%2BDaughter;fontColor=#FFFFFF;" parent="6fbkypTu9VrBJ1vaU0E5-53" vertex="1">
          <mxGeometry width="187" height="60" as="geometry">
            <mxRectangle width="187" height="60" as="alternateBounds" />
          </mxGeometry>
        </mxCell>
        <mxCell id="6fbkypTu9VrBJ1vaU0E5-55" value="jump" style="shape=partialRectangle;html=1;whiteSpace=wrap;connectable=0;strokeColor=inherit;overflow=hidden;fillColor=none;top=0;left=0;bottom=0;right=0;pointerEvents=1;fontSize=16;sketch=1;hachureGap=4;jiggle=2;curveFitting=1;fontFamily=Architects Daughter;fontSource=https%3A%2F%2Ffonts.googleapis.com%2Fcss%3Ffamily%3DArchitects%2BDaughter;fontColor=#FFFFFF;" parent="6fbkypTu9VrBJ1vaU0E5-53" vertex="1">
          <mxGeometry x="187" width="186" height="60" as="geometry">
            <mxRectangle width="186" height="60" as="alternateBounds" />
          </mxGeometry>
        </mxCell>
        <mxCell id="6fbkypTu9VrBJ1vaU0E5-56" value="" style="shape=partialRectangle;html=1;whiteSpace=wrap;connectable=0;strokeColor=inherit;overflow=hidden;fillColor=none;top=0;left=0;bottom=0;right=0;pointerEvents=1;fontSize=16;sketch=1;hachureGap=4;jiggle=2;curveFitting=1;fontFamily=Architects Daughter;fontSource=https%3A%2F%2Ffonts.googleapis.com%2Fcss%3Ffamily%3DArchitects%2BDaughter;" parent="6fbkypTu9VrBJ1vaU0E5-53" vertex="1" visible="0">
          <mxGeometry x="373" width="307" height="60" as="geometry">
            <mxRectangle width="307" height="60" as="alternateBounds" />
          </mxGeometry>
        </mxCell>
        <mxCell id="6fbkypTu9VrBJ1vaU0E5-61" value="" style="shape=tableRow;horizontal=0;startSize=0;swimlaneHead=0;swimlaneBody=0;strokeColor=inherit;top=0;left=0;bottom=0;right=0;collapsible=0;dropTarget=0;fillColor=none;points=[[0,0.5],[1,0.5]];portConstraint=eastwest;fontSize=16;sketch=1;hachureGap=4;jiggle=2;curveFitting=1;fontFamily=Architects Daughter;fontSource=https%3A%2F%2Ffonts.googleapis.com%2Fcss%3Ffamily%3DArchitects%2BDaughter;fontColor=#FFFFFF;" parent="6fbkypTu9VrBJ1vaU0E5-16" vertex="1">
          <mxGeometry y="260" width="680" height="60" as="geometry" />
        </mxCell>
        <mxCell id="6fbkypTu9VrBJ1vaU0E5-62" value="SPACE +&amp;nbsp; &amp;nbsp; &amp;nbsp; &amp;nbsp;&amp;nbsp;" style="shape=partialRectangle;html=1;whiteSpace=wrap;connectable=0;strokeColor=inherit;overflow=hidden;fillColor=none;top=0;left=0;bottom=0;right=0;pointerEvents=1;fontSize=16;sketch=1;hachureGap=4;jiggle=2;curveFitting=1;fontFamily=Architects Daughter;fontSource=https%3A%2F%2Ffonts.googleapis.com%2Fcss%3Ffamily%3DArchitects%2BDaughter;fontColor=#FFFFFF;" parent="6fbkypTu9VrBJ1vaU0E5-61" vertex="1">
          <mxGeometry width="187" height="60" as="geometry">
            <mxRectangle width="187" height="60" as="alternateBounds" />
          </mxGeometry>
        </mxCell>
        <mxCell id="6fbkypTu9VrBJ1vaU0E5-63" value="jump to the left" style="shape=partialRectangle;html=1;whiteSpace=wrap;connectable=0;strokeColor=inherit;overflow=hidden;fillColor=none;top=0;left=0;bottom=0;right=0;pointerEvents=1;fontSize=16;sketch=1;hachureGap=4;jiggle=2;curveFitting=1;fontFamily=Architects Daughter;fontSource=https%3A%2F%2Ffonts.googleapis.com%2Fcss%3Ffamily%3DArchitects%2BDaughter;fontColor=#FFFFFF;" parent="6fbkypTu9VrBJ1vaU0E5-61" vertex="1">
          <mxGeometry x="187" width="186" height="60" as="geometry">
            <mxRectangle width="186" height="60" as="alternateBounds" />
          </mxGeometry>
        </mxCell>
        <mxCell id="6fbkypTu9VrBJ1vaU0E5-64" value="" style="shape=partialRectangle;html=1;whiteSpace=wrap;connectable=0;strokeColor=inherit;overflow=hidden;fillColor=none;top=0;left=0;bottom=0;right=0;pointerEvents=1;fontSize=16;sketch=1;hachureGap=4;jiggle=2;curveFitting=1;fontFamily=Architects Daughter;fontSource=https%3A%2F%2Ffonts.googleapis.com%2Fcss%3Ffamily%3DArchitects%2BDaughter;" parent="6fbkypTu9VrBJ1vaU0E5-61" vertex="1" visible="0">
          <mxGeometry x="373" width="307" height="60" as="geometry">
            <mxRectangle width="307" height="60" as="alternateBounds" />
          </mxGeometry>
        </mxCell>
        <mxCell id="6fbkypTu9VrBJ1vaU0E5-57" value="" style="shape=tableRow;horizontal=0;startSize=0;swimlaneHead=0;swimlaneBody=0;strokeColor=inherit;top=0;left=0;bottom=0;right=0;collapsible=0;dropTarget=0;fillColor=none;points=[[0,0.5],[1,0.5]];portConstraint=eastwest;fontSize=16;sketch=1;hachureGap=4;jiggle=2;curveFitting=1;fontFamily=Architects Daughter;fontSource=https%3A%2F%2Ffonts.googleapis.com%2Fcss%3Ffamily%3DArchitects%2BDaughter;fontColor=#FFFFFF;" parent="6fbkypTu9VrBJ1vaU0E5-16" vertex="1">
          <mxGeometry y="320" width="680" height="60" as="geometry" />
        </mxCell>
        <mxCell id="6fbkypTu9VrBJ1vaU0E5-58" value="SPACE +&amp;nbsp; &amp;nbsp; &amp;nbsp; &amp;nbsp;&amp;nbsp;" style="shape=partialRectangle;html=1;whiteSpace=wrap;connectable=0;strokeColor=inherit;overflow=hidden;fillColor=none;top=0;left=0;bottom=0;right=0;pointerEvents=1;fontSize=16;sketch=1;hachureGap=4;jiggle=2;curveFitting=1;fontFamily=Architects Daughter;fontSource=https%3A%2F%2Ffonts.googleapis.com%2Fcss%3Ffamily%3DArchitects%2BDaughter;fontColor=#FFFFFF;" parent="6fbkypTu9VrBJ1vaU0E5-57" vertex="1">
          <mxGeometry width="187" height="60" as="geometry">
            <mxRectangle width="187" height="60" as="alternateBounds" />
          </mxGeometry>
        </mxCell>
        <mxCell id="6fbkypTu9VrBJ1vaU0E5-59" value="jump to the right" style="shape=partialRectangle;html=1;whiteSpace=wrap;connectable=0;strokeColor=inherit;overflow=hidden;fillColor=none;top=0;left=0;bottom=0;right=0;pointerEvents=1;fontSize=16;sketch=1;hachureGap=4;jiggle=2;curveFitting=1;fontFamily=Architects Daughter;fontSource=https%3A%2F%2Ffonts.googleapis.com%2Fcss%3Ffamily%3DArchitects%2BDaughter;fontColor=#FFFFFF;" parent="6fbkypTu9VrBJ1vaU0E5-57" vertex="1">
          <mxGeometry x="187" width="186" height="60" as="geometry">
            <mxRectangle width="186" height="60" as="alternateBounds" />
          </mxGeometry>
        </mxCell>
        <mxCell id="6fbkypTu9VrBJ1vaU0E5-60" value="" style="shape=partialRectangle;html=1;whiteSpace=wrap;connectable=0;strokeColor=inherit;overflow=hidden;fillColor=none;top=0;left=0;bottom=0;right=0;pointerEvents=1;fontSize=16;sketch=1;hachureGap=4;jiggle=2;curveFitting=1;fontFamily=Architects Daughter;fontSource=https%3A%2F%2Ffonts.googleapis.com%2Fcss%3Ffamily%3DArchitects%2BDaughter;" parent="6fbkypTu9VrBJ1vaU0E5-57" vertex="1" visible="0">
          <mxGeometry x="373" width="307" height="60" as="geometry">
            <mxRectangle width="307" height="60" as="alternateBounds" />
          </mxGeometry>
        </mxCell>
        <mxCell id="HIUNtHQXh7yiTNTPevFz-47" value="&lt;h1&gt;&lt;br&gt;&lt;/h1&gt;" style="text;html=1;strokeColor=none;fillColor=none;spacing=5;spacingTop=-20;whiteSpace=wrap;overflow=hidden;rounded=0;fontSize=20;fontFamily=Architects Daughter;align=center;" parent="1" vertex="1">
          <mxGeometry x="40" y="60" width="190" height="120" as="geometry" />
        </mxCell>
        <mxCell id="6fbkypTu9VrBJ1vaU0E5-15" value="" style="shape=singleArrow;whiteSpace=wrap;html=1;sketch=1;hachureGap=4;jiggle=2;curveFitting=1;fontFamily=Architects Daughter;fontSource=https%3A%2F%2Ffonts.googleapis.com%2Fcss%3Ffamily%3DArchitects%2BDaughter;fontSize=20;fillColor=none;fontColor=#FFFFFF;strokeColor=#ffffff;" parent="1" vertex="1">
          <mxGeometry x="150" y="215" width="50" height="30" as="geometry" />
        </mxCell>
        <mxCell id="6fbkypTu9VrBJ1vaU0E5-30" value="" style="shape=singleArrow;direction=west;whiteSpace=wrap;html=1;sketch=1;hachureGap=4;jiggle=2;curveFitting=1;fontFamily=Architects Daughter;fontSource=https%3A%2F%2Ffonts.googleapis.com%2Fcss%3Ffamily%3DArchitects%2BDaughter;fontSize=20;fillColor=none;fontColor=#FFFFFF;strokeColor=#fcfcfc;" parent="1" vertex="1">
          <mxGeometry x="150" y="280" width="50" height="30" as="geometry" />
        </mxCell>
        <mxCell id="6fbkypTu9VrBJ1vaU0E5-52" value="&lt;h1&gt;&lt;br&gt;&lt;/h1&gt;" style="text;html=1;strokeColor=none;fillColor=none;spacing=5;spacingTop=-20;whiteSpace=wrap;overflow=hidden;rounded=0;fontSize=20;fontFamily=Architects Daughter;align=center;" parent="1" vertex="1">
          <mxGeometry x="630" y="440" width="190" height="120" as="geometry" />
        </mxCell>
        <mxCell id="6fbkypTu9VrBJ1vaU0E5-65" value="" style="shape=singleArrow;direction=west;whiteSpace=wrap;html=1;sketch=1;hachureGap=4;jiggle=2;curveFitting=1;fontFamily=Architects Daughter;fontSource=https%3A%2F%2Ffonts.googleapis.com%2Fcss%3Ffamily%3DArchitects%2BDaughter;fontSize=20;fillColor=none;fontColor=#FFFFFF;strokeColor=#fcfcfc;" parent="1" vertex="1">
          <mxGeometry x="192" y="395" width="50" height="30" as="geometry" />
        </mxCell>
        <mxCell id="6fbkypTu9VrBJ1vaU0E5-66" value="" style="shape=singleArrow;whiteSpace=wrap;html=1;sketch=1;hachureGap=4;jiggle=2;curveFitting=1;fontFamily=Architects Daughter;fontSource=https%3A%2F%2Ffonts.googleapis.com%2Fcss%3Ffamily%3DArchitects%2BDaughter;fontSize=20;fillColor=none;fontColor=#FFFFFF;strokeColor=#fafafa;" parent="1" vertex="1">
          <mxGeometry x="192" y="456" width="50" height="30" as="geometry" />
        </mxCell>
      </root>
    </mxGraphModel>
  </diagram>
</mxfile>
